<svg width="737" height="531" viewBox="0 0 737 531" fill="none" xmlns="http://www.w3.org/2000/svg">
<g opacity="0.5">
<path d="M682.966 469.174H473.737C466.125 469.165 458.827 466.138 453.444 460.757C448.062 455.376 445.034 448.08 445.025 440.47V110.515C445.034 102.904 448.062 95.6083 453.444 90.227C458.827 84.8457 466.125 81.8187 473.737 81.8102H682.966C690.578 81.8187 697.876 84.8457 703.259 90.227C708.641 95.6083 711.669 102.904 711.678 110.515V440.47C711.669 448.08 708.641 455.376 703.259 460.757C697.876 466.138 690.578 469.165 682.966 469.174Z" fill="#E6E6E6"/>
<path d="M686.436 98.9385H473.342C470.959 98.9414 468.675 99.8891 466.99 101.574C465.305 103.258 464.357 105.542 464.354 107.924V442.181C464.358 444.563 465.306 446.847 466.991 448.531C468.676 450.215 470.96 451.163 473.342 451.167H686.436C688.818 451.164 691.103 450.216 692.788 448.532C694.473 446.847 695.421 444.563 695.424 442.181V107.924C695.421 105.542 694.473 103.258 692.788 101.574C691.103 99.8891 688.818 98.9414 686.436 98.9385Z" fill="white"/>
<path d="M478.851 81.8102C478.852 81.228 479.083 80.6699 479.495 80.2582C479.907 79.8465 480.465 79.6149 481.048 79.6143H495.984C496.566 79.6143 497.125 79.8456 497.537 80.2574C497.949 80.6693 498.18 81.2278 498.18 81.8102C498.18 82.3926 497.949 82.9512 497.537 83.363C497.125 83.7748 496.566 84.0061 495.984 84.0061H481.048C480.465 84.0054 479.907 83.7738 479.495 83.3622C479.083 82.9505 478.852 82.3924 478.851 81.8102Z" fill="#E6E6E6"/>
<path d="M503.452 81.8102C503.452 81.228 503.684 80.6699 504.096 80.2582C504.508 79.8465 505.066 79.6149 505.648 79.6143H520.584C521.167 79.6143 521.725 79.8456 522.137 80.2574C522.549 80.6693 522.781 81.2278 522.781 81.8102C522.781 82.3926 522.549 82.9512 522.137 83.363C521.725 83.7748 521.167 84.0061 520.584 84.0061H505.648C505.066 84.0054 504.508 83.7739 504.096 83.3622C503.684 82.9505 503.452 82.3924 503.452 81.8102Z" fill="#E6E6E6"/>
<path d="M651.055 81.8102C651.055 81.228 651.287 80.6699 651.699 80.2582C652.111 79.8465 652.669 79.6149 653.251 79.6143H668.187C668.77 79.6143 669.328 79.8456 669.74 80.2574C670.152 80.6693 670.384 81.2278 670.384 81.8102C670.384 82.3926 670.152 82.9512 669.74 83.363C669.328 83.7748 668.77 84.0061 668.187 84.0061H653.251C652.669 84.0054 652.111 83.7739 651.699 83.3622C651.287 82.9505 651.055 82.3924 651.055 81.8102Z" fill="#E6E6E6"/>
<path d="M609.418 444.281C609.418 446.591 609.374 448.892 609.269 451.167H473.342C470.96 451.163 468.676 450.215 466.991 448.531C465.306 446.847 464.358 444.563 464.354 442.181V273.937C504.832 280.475 541.66 301.208 568.241 332.42C594.822 363.633 609.419 403.288 609.418 444.281Z" fill="#F2F2F2"/>
<path d="M604.803 184.836H554.109C551.802 184.836 549.932 186.706 549.932 189.012V194.223C549.932 196.529 551.802 198.399 554.109 198.399H604.803C607.109 198.399 608.979 196.529 608.979 194.223V189.012C608.979 186.706 607.109 184.836 604.803 184.836Z" fill="#F0BC7F"/>
<path d="M637.022 211.961H521.89C519.583 211.961 517.713 213.831 517.713 216.137V221.348C517.713 223.654 519.583 225.524 521.89 225.524H637.022C639.328 225.524 641.198 223.654 641.198 221.348V216.137C641.198 213.831 639.328 211.961 637.022 211.961Z" fill="#E6E6E6"/>
<path d="M637.022 239.087H521.89C519.583 239.087 517.713 240.956 517.713 243.263V248.473C517.713 250.78 519.583 252.649 521.89 252.649H637.022C639.328 252.649 641.198 250.78 641.198 248.473V243.263C641.198 240.956 639.328 239.087 637.022 239.087Z" fill="#E6E6E6"/>
<path d="M617.307 428.323C616.647 428.353 615.993 428.18 615.435 427.827C614.877 427.473 614.44 426.957 614.185 426.347C613.931 425.738 613.869 425.065 614.01 424.419C614.15 423.774 614.486 423.187 614.971 422.739L615.192 421.861C615.163 421.791 615.134 421.72 615.104 421.65C614.439 420.08 613.325 418.741 611.901 417.802C610.477 416.862 608.808 416.365 607.102 416.371C605.396 416.377 603.731 416.887 602.314 417.837C600.897 418.787 599.793 420.134 599.14 421.709C596.529 427.997 593.204 434.295 592.386 440.942C592.025 443.881 592.177 446.859 592.835 449.746C586.702 436.371 583.518 421.835 583.497 407.122C583.496 403.43 583.701 399.741 584.112 396.071C584.451 393.064 584.922 390.077 585.525 387.112C588.812 371.024 595.869 355.944 606.117 343.112C611.077 340.407 615.088 336.246 617.61 331.191C618.524 329.374 619.17 327.434 619.527 325.432C618.968 325.505 618.399 325.551 617.84 325.588C617.665 325.597 617.482 325.606 617.308 325.615L617.242 325.618C616.627 325.646 616.017 325.495 615.486 325.184C614.955 324.873 614.525 324.416 614.247 323.866C613.97 323.317 613.858 322.699 613.924 322.087C613.99 321.475 614.232 320.895 614.62 320.417C614.861 320.12 615.103 319.823 615.345 319.526C615.712 319.068 616.088 318.618 616.455 318.16C616.497 318.116 616.537 318.07 616.574 318.022C616.996 317.499 617.418 316.986 617.84 316.463C617.07 315.268 616.034 314.267 614.813 313.538C610.584 311.062 604.75 312.777 601.696 316.601C598.632 320.425 598.054 325.79 599.118 330.567C600.165 334.633 601.896 338.49 604.237 341.975C604.007 342.269 603.769 342.553 603.54 342.846C599.348 348.235 595.694 354.022 592.631 360.124C593.376 353.288 592.487 346.374 590.037 339.949C587.555 333.961 582.901 328.918 578.803 323.741C573.881 317.524 563.787 320.237 562.92 328.119C562.912 328.195 562.904 328.272 562.896 328.348C563.504 328.691 564.1 329.056 564.683 329.441C565.415 329.93 565.983 330.629 566.311 331.446C566.639 332.264 566.713 333.161 566.523 334.02C566.332 334.88 565.886 335.662 565.243 336.264C564.601 336.866 563.791 337.26 562.921 337.395L562.831 337.408C563.048 339.602 563.432 341.775 563.978 343.91C565.561 349.871 568.359 355.44 572.196 360.269C576.034 365.097 580.827 369.082 586.277 371.972C586.634 372.155 586.983 372.338 587.341 372.513C584.264 381.231 582.333 390.312 581.599 399.529C581.183 404.966 581.207 410.428 581.672 415.861L581.644 415.668C580.47 409.627 577.246 404.175 572.518 400.235C565.494 394.466 555.571 392.342 547.994 387.706C547.189 387.189 546.252 386.913 545.295 386.911C544.338 386.909 543.401 387.18 542.593 387.693C541.785 388.206 541.141 388.939 540.736 389.806C540.332 390.673 540.183 391.638 540.309 392.586C540.319 392.653 540.33 392.721 540.34 392.788C541.47 393.248 542.569 393.778 543.633 394.375C544.242 394.718 544.838 395.083 545.421 395.468C546.153 395.957 546.72 396.656 547.049 397.473C547.377 398.29 547.45 399.188 547.26 400.047C547.069 400.907 546.624 401.689 545.981 402.291C545.338 402.893 544.528 403.287 543.658 403.421L543.569 403.435C543.505 403.444 543.45 403.454 543.385 403.463C545.315 408.07 548.024 412.31 551.393 415.999C555.555 420.463 560.585 424.031 566.175 426.483C571.765 428.935 577.797 430.22 583.901 430.259H583.91C585.567 437.457 587.968 444.464 591.074 451.167H616.666C616.757 450.883 616.84 450.589 616.922 450.305C614.554 450.454 612.175 450.312 609.841 449.883C611.74 447.554 613.639 445.206 615.537 442.877C615.58 442.834 615.619 442.788 615.657 442.739C616.62 441.547 617.592 440.364 618.555 439.172L618.556 439.171C618.607 435.517 618.188 431.871 617.308 428.324L617.307 428.323ZM588.001 370.688L588.015 370.67L588.001 370.706V370.688ZM582.332 421.776L582.112 421.281C582.122 420.923 582.122 420.566 582.112 420.199C582.112 420.098 582.094 419.997 582.094 419.896C582.176 420.529 582.25 421.162 582.342 421.794L582.332 421.776Z" fill="#CCCCCC"/>
<path d="M675.784 128.449H483.994C483.579 128.44 483.184 128.268 482.894 127.972C482.604 127.675 482.441 127.277 482.441 126.862C482.441 126.447 482.604 126.049 482.894 125.752C483.184 125.455 483.579 125.284 483.994 125.275H675.784C676.199 125.284 676.594 125.455 676.884 125.752C677.174 126.049 677.337 126.447 677.337 126.862C677.337 127.277 677.174 127.675 676.884 127.972C676.594 128.268 676.199 128.44 675.784 128.449Z" fill="#CACACA"/>
<path d="M494.226 120.686C496.803 120.686 498.892 118.552 498.892 115.918C498.892 113.285 496.803 111.15 494.226 111.15C491.65 111.15 489.561 113.285 489.561 115.918C489.561 118.552 491.65 120.686 494.226 120.686Z" fill="#3F3D56"/>
<path d="M510.342 120.686C512.919 120.686 515.008 118.552 515.008 115.918C515.008 113.285 512.919 111.15 510.342 111.15C507.766 111.15 505.677 113.285 505.677 115.918C505.677 118.552 507.766 120.686 510.342 120.686Z" fill="#3F3D56"/>
<path d="M526.459 120.686C529.035 120.686 531.124 118.552 531.124 115.918C531.124 113.285 529.035 111.15 526.459 111.15C523.882 111.15 521.793 113.285 521.793 115.918C521.793 118.552 523.882 120.686 526.459 120.686Z" fill="#3F3D56"/>
<path d="M668.288 112.993H657.848C657.641 112.997 657.444 113.082 657.299 113.229C657.154 113.377 657.073 113.576 657.073 113.783C657.073 113.99 657.154 114.188 657.299 114.336C657.444 114.484 657.641 114.569 657.848 114.573H668.288C668.495 114.569 668.692 114.484 668.837 114.336C668.981 114.188 669.063 113.99 669.063 113.783C669.063 113.576 668.981 113.377 668.837 113.229C668.692 113.082 668.495 112.997 668.288 112.993Z" fill="#A8A5C2"/>
<path d="M668.288 115.959H657.848C657.641 115.963 657.444 116.048 657.299 116.196C657.154 116.344 657.073 116.542 657.073 116.749C657.073 116.956 657.154 117.155 657.299 117.303C657.444 117.451 657.641 117.536 657.848 117.54H668.288C668.495 117.536 668.692 117.451 668.837 117.303C668.981 117.155 669.063 116.956 669.063 116.749C669.063 116.542 668.981 116.344 668.837 116.196C668.692 116.048 668.495 115.963 668.288 115.959Z" fill="#A8A5C2"/>
<path d="M668.288 118.922H657.848C657.641 118.926 657.444 119.011 657.299 119.159C657.154 119.306 657.073 119.505 657.073 119.712C657.073 119.919 657.154 120.118 657.299 120.265C657.444 120.413 657.641 120.498 657.848 120.502H668.288C668.495 120.498 668.692 120.413 668.837 120.265C668.981 120.118 669.063 119.919 669.063 119.712C669.063 119.505 668.981 119.306 668.837 119.159C668.692 119.011 668.495 118.926 668.288 118.922Z" fill="#A8A5C2"/>
<path d="M357.109 274.063H245.914C244.341 274.065 242.833 274.692 241.723 275.805C240.612 276.919 239.989 278.428 239.99 280V455.613H363.048V280C363.049 279.221 362.895 278.448 362.597 277.728C362.299 277.007 361.861 276.352 361.31 275.801C360.758 275.249 360.103 274.812 359.382 274.514C358.662 274.216 357.889 274.062 357.109 274.063ZM301.886 373.843C298.408 373.827 295.078 372.439 292.619 369.981C290.16 367.522 288.772 364.193 288.755 360.716V340.461C288.758 336.982 290.143 333.646 292.605 331.186C295.067 328.727 298.405 327.345 301.886 327.345C305.366 327.345 308.704 328.727 311.166 331.186C313.628 333.646 315.013 336.982 315.016 340.461V360.716C315 364.193 313.611 367.523 311.152 369.981C308.693 372.439 305.363 373.827 301.886 373.843Z" fill="#E6E6E6"/>
<path d="M239.608 449.996V466.939C239.61 467.817 239.96 468.658 240.581 469.279C241.202 469.9 242.043 470.249 242.922 470.251H360.117C360.994 470.247 361.834 469.896 362.455 469.276C363.075 468.656 363.425 467.816 363.43 466.939V449.996L239.608 449.996Z" fill="#CCCCCC"/>
<path d="M541.238 0H65.9228C61.8391 0.00649512 57.9245 1.63122 55.0368 4.51811C52.1492 7.40501 50.5241 11.3186 50.5176 15.4013V336.067C50.5215 340.151 52.1458 344.066 55.034 346.953C57.9222 349.841 61.8383 351.465 65.9228 351.469H541.238C545.322 351.465 549.239 349.841 552.127 346.953C555.015 344.066 556.639 340.151 556.643 336.067V15.4013C556.637 11.3186 555.011 7.40501 552.124 4.51811C549.236 1.63121 545.322 0.00649258 541.238 0Z" fill="#E6E6E6"/>
<path d="M537.27 11.1241H69.8939C67.7074 11.1289 65.612 12.0006 64.0675 13.5479C62.523 15.0952 61.6555 17.1919 61.6553 19.3779V332.096C61.659 334.279 62.5282 336.372 64.0725 337.916C65.6167 339.46 67.71 340.329 69.8939 340.333H537.27C539.454 340.329 541.548 339.46 543.092 337.916C544.636 336.372 545.505 334.279 545.509 332.096V19.3779C545.509 17.1919 544.641 15.0952 543.097 13.5479C541.552 12.0006 539.457 11.1289 537.27 11.1241Z" fill="white"/>
<path d="M545.509 19.3779V332.096C545.505 334.279 544.636 336.372 543.092 337.916C541.548 339.46 539.454 340.329 537.27 340.333H372.463C354.231 323.429 339.274 303.308 328.341 280.981C327.622 279.542 326.936 278.087 326.286 276.614C316.324 255.004 310.292 231.792 308.472 208.067C308.352 206.611 308.25 205.156 308.181 203.683C307.958 199.916 307.856 196.097 307.856 192.262C307.823 166.751 312.642 141.466 322.055 117.755C322.62 116.282 323.22 114.827 323.836 113.371C342.781 68.871 377.013 32.6068 420.354 11.1241H537.27C539.457 11.1289 541.552 12.0006 543.097 13.5479C544.641 15.0952 545.509 17.1919 545.509 19.3779Z" fill="#F0BC7F"/>
<path d="M513.776 54.2098H76.4539C75.9991 54.2001 75.5662 54.0126 75.2479 53.6876C74.9297 53.3626 74.7515 52.9259 74.7515 52.4711C74.7515 52.0163 74.9297 51.5796 75.2479 51.2546C75.5662 50.9295 75.9991 50.7421 76.4539 50.7324H513.776C514.231 50.7421 514.664 50.9295 514.982 51.2546C515.3 51.5796 515.479 52.0163 515.479 52.4711C515.479 52.9259 515.3 53.3626 514.982 53.6876C514.664 54.0126 514.231 54.2001 513.776 54.2098Z" fill="#CACACA"/>
<path d="M106.223 41.855C111.852 41.855 116.415 37.1913 116.415 31.4384C116.415 25.6855 111.852 21.0219 106.223 21.0219C100.594 21.0219 96.031 25.6855 96.031 31.4384C96.031 37.1913 100.594 41.855 106.223 41.855Z" fill="#A8A5C2"/>
<path d="M141.432 41.855C147.061 41.855 151.624 37.1913 151.624 31.4384C151.624 25.6855 147.061 21.0219 141.432 21.0219C135.803 21.0219 131.24 25.6855 131.24 31.4384C131.24 37.1913 135.803 41.855 141.432 41.855Z" fill="#A8A5C2"/>
<path d="M176.64 41.855C182.269 41.855 186.832 37.1913 186.832 31.4384C186.832 25.6855 182.269 21.0219 176.64 21.0219C171.012 21.0219 166.448 25.6855 166.448 31.4384C166.448 37.1913 171.012 41.855 176.64 41.855Z" fill="#A8A5C2"/>
<path d="M492.578 23.6038H467.567C467.071 23.6136 466.599 23.8173 466.252 24.1713C465.905 24.5253 465.71 25.0013 465.71 25.497C465.71 25.9928 465.905 26.4687 466.252 26.8227C466.599 27.1767 467.071 27.3805 467.567 27.3903H492.578C493.073 27.3805 493.545 27.1767 493.893 26.8227C494.24 26.4687 494.434 25.9928 494.434 25.497C494.434 25.0013 494.24 24.5253 493.893 24.1713C493.545 23.8173 493.073 23.6136 492.578 23.6038Z" fill="#A8A5C2"/>
<path d="M492.578 30.7104H467.567C467.071 30.7203 466.599 30.924 466.252 31.278C465.905 31.632 465.71 32.108 465.71 32.6037C465.71 33.0995 465.905 33.5754 466.252 33.9294C466.599 34.2834 467.071 34.4872 467.567 34.497H492.578C493.073 34.4872 493.545 34.2834 493.893 33.9294C494.24 33.5754 494.434 33.0995 494.434 32.6037C494.434 32.108 494.24 31.632 493.893 31.278C493.545 30.924 493.073 30.7203 492.578 30.7104Z" fill="#A8A5C2"/>
<path d="M492.578 37.8079H467.567C467.071 37.8177 466.599 38.0215 466.252 38.3754C465.905 38.7294 465.71 39.2054 465.71 39.7011C465.71 40.1969 465.905 40.6728 466.252 41.0268C466.599 41.3808 467.071 41.5846 467.567 41.5944H492.578C493.073 41.5846 493.545 41.3808 493.893 41.0268C494.24 40.6728 494.434 40.1969 494.434 39.7011C494.434 39.2054 494.24 38.7294 493.893 38.3754C493.545 38.0215 493.073 37.8177 492.578 37.8079Z" fill="#A8A5C2"/>
<path d="M210.357 155.785H149.201C146.894 155.785 145.024 157.655 145.024 159.961V166.47C145.024 168.776 146.894 170.646 149.201 170.646H210.357C212.664 170.646 214.534 168.776 214.534 166.47V159.961C214.534 157.655 212.664 155.785 210.357 155.785Z" fill="#F0BC7F"/>
<path d="M245.658 185.506H113.9C111.593 185.506 109.723 187.375 109.723 189.682V196.19C109.723 198.496 111.593 200.366 113.9 200.366H245.658C247.965 200.366 249.835 198.496 249.835 196.19V189.682C249.835 187.375 247.965 185.506 245.658 185.506Z" fill="#E6E6E6"/>
<path d="M245.658 215.226H113.9C111.593 215.226 109.723 217.096 109.723 219.402V225.91C109.723 228.216 111.593 230.086 113.9 230.086H245.658C247.965 230.086 249.835 228.216 249.835 225.91V219.402C249.835 217.096 247.965 215.226 245.658 215.226Z" fill="#E6E6E6"/>
<path d="M121.159 322.404C121.169 328.525 120.078 334.598 117.938 340.333H69.8939C67.71 340.329 65.6167 339.46 64.0725 337.916C62.5282 336.372 61.659 334.279 61.6553 332.096V271.683C64.3397 271.249 67.0547 271.031 69.774 271.032C76.5221 271.031 83.2041 272.36 89.4385 274.941C95.673 277.523 101.338 281.307 106.109 286.077C110.881 290.848 114.666 296.511 117.248 302.744C119.83 308.977 121.159 315.657 121.159 322.404Z" fill="#F0BC7F"/>
<path opacity="0.2" d="M545.937 117.755V113.371H472.44V62.5647H468.073V113.371H383.836V62.5647H379.469V113.371H323.836C323.22 114.827 322.62 116.283 322.055 117.755H379.469V203.683H308.181C308.25 205.156 308.352 206.612 308.472 208.067H379.469V276.614H326.286C326.937 278.087 327.622 279.543 328.341 280.981H379.469V338.603H383.836V280.981H468.073V338.603H472.44V280.981H545.937V276.614H472.44V276.614C472.44 267.613 474.214 258.699 477.66 250.382C481.105 242.066 486.156 234.509 492.522 228.144C498.889 221.779 506.448 216.73 514.766 213.285C523.085 209.84 532 208.067 541.004 208.067H545.937V203.683H472.44V117.755H545.937ZM468.073 276.614H383.836V208.067H468.073V276.614ZM468.073 203.683H383.836V201.971C383.836 179.635 392.711 158.215 408.508 142.421C424.306 126.628 445.732 117.755 468.073 117.755H468.073V203.683Z" fill="black"/>
<path d="M486.761 307.889C485.824 307.932 484.895 307.686 484.103 307.184C483.31 306.682 482.69 305.949 482.328 305.083C481.966 304.218 481.879 303.262 482.078 302.345C482.278 301.428 482.755 300.595 483.444 299.958C483.559 299.499 483.642 299.17 483.758 298.711C483.716 298.612 483.675 298.512 483.633 298.412C479.419 288.367 465.138 288.436 460.96 298.496C457.251 307.426 452.53 316.37 451.368 325.811C450.856 329.984 451.072 334.214 452.006 338.314C443.296 319.319 438.773 298.674 438.744 277.779C438.742 272.535 439.034 267.296 439.617 262.085C440.099 257.813 440.768 253.571 441.623 249.36C446.292 226.511 456.315 205.096 470.869 186.871C477.914 183.029 483.61 177.12 487.192 169.94C488.49 167.36 489.407 164.605 489.915 161.761C489.12 161.866 488.313 161.931 487.518 161.983C487.27 161.996 487.01 162.009 486.762 162.022L486.669 162.026C485.795 162.065 484.929 161.851 484.175 161.41C483.42 160.968 482.81 160.318 482.416 159.538C482.022 158.757 481.863 157.88 481.957 157.011C482.05 156.142 482.393 155.318 482.944 154.64C483.287 154.217 483.631 153.796 483.974 153.374C484.495 152.723 485.03 152.084 485.551 151.433C485.611 151.371 485.667 151.306 485.72 151.238C486.319 150.495 486.918 149.766 487.518 149.024C486.424 147.326 484.953 145.905 483.219 144.869C477.213 141.353 468.928 143.788 464.59 149.219C460.239 154.65 459.418 162.269 460.929 169.055C462.219 174.863 465.033 180.19 468.199 185.256C467.873 185.673 467.534 186.077 467.208 186.494C461.255 194.147 456.066 202.366 451.716 211.031C452.774 201.323 451.511 191.503 448.032 182.378C444.506 173.874 437.898 166.712 432.078 159.36C425.087 150.53 410.752 154.384 409.52 165.578C409.508 165.686 409.497 165.795 409.485 165.903C410.35 166.39 411.196 166.908 412.024 167.455C413.064 168.15 413.87 169.143 414.336 170.303C414.802 171.464 414.907 172.738 414.636 173.959C414.366 175.18 413.732 176.291 412.82 177.146C411.907 178.001 410.757 178.56 409.521 178.751L409.394 178.771C409.702 181.885 410.246 184.972 411.022 188.005C413.271 196.47 417.245 204.379 422.694 211.237C428.144 218.095 434.952 223.754 442.691 227.858C443.199 228.118 443.695 228.379 444.203 228.626C439.832 241.008 437.091 253.906 436.048 266.995C435.457 274.717 435.492 282.474 436.152 290.19L436.113 289.917C434.445 281.336 429.867 273.594 423.151 267.998C413.176 259.805 399.083 256.789 388.322 250.204C383.141 247.034 376.503 251.13 377.408 257.135C377.422 257.231 377.437 257.326 377.452 257.422C379.056 258.075 380.618 258.828 382.128 259.675C382.993 260.163 383.839 260.68 384.667 261.228C385.707 261.923 386.513 262.915 386.979 264.076C387.445 265.236 387.55 266.51 387.279 267.731C387.009 268.952 386.376 270.063 385.463 270.918C384.55 271.773 383.4 272.333 382.164 272.523L382.037 272.543C381.946 272.556 381.868 272.569 381.777 272.582C384.517 279.125 388.365 285.148 393.149 290.386C399.06 296.726 406.204 301.793 414.142 305.276C422.081 308.758 430.648 310.583 439.317 310.638H439.33C441.684 320.862 445.093 330.813 449.505 340.333H485.85C485.981 339.929 486.098 339.512 486.215 339.108C482.851 339.32 479.473 339.119 476.158 338.509C478.855 335.201 481.551 331.867 484.248 328.559C484.308 328.497 484.365 328.432 484.417 328.364C485.785 326.67 487.166 324.99 488.534 323.297L488.535 323.295C488.607 318.105 488.012 312.928 486.762 307.89L486.761 307.889ZM445.14 226.034L445.16 226.009L445.14 226.06V226.034ZM437.09 298.591L436.777 297.888C436.79 297.38 436.79 296.872 436.777 296.351C436.777 296.207 436.751 296.064 436.751 295.921C436.868 296.82 436.973 297.718 437.103 298.617L437.09 298.591Z" fill="#707072"/>
<path d="M163.115 222.905V174.069C163.115 166.573 160.137 159.384 154.835 154.083C149.533 148.782 142.342 145.804 134.844 145.804H31.353C23.8549 145.804 16.6639 148.782 11.3619 154.083C6.05991 159.384 3.0813 166.573 3.0813 174.069V441.986C3.0813 449.483 6.05992 456.672 11.3619 461.972C16.6639 467.273 23.8549 470.251 31.353 470.251H134.844C138.556 470.251 142.233 469.52 145.663 468.1C149.093 466.679 152.21 464.597 154.835 461.973C157.46 459.348 159.543 456.232 160.963 452.803C162.384 449.373 163.115 445.698 163.115 441.986V257.667C163.588 257.667 164.042 257.479 164.376 257.145C164.711 256.811 164.899 256.357 164.899 255.885V224.688C164.899 224.215 164.711 223.762 164.376 223.427C164.042 223.093 163.588 222.905 163.115 222.905Z" fill="#E6E6E6"/>
<path d="M157.099 174.263V441.793C157.099 447.35 154.907 452.683 150.997 456.633C147.088 460.583 141.777 462.831 136.219 462.889C136.142 462.897 136.065 462.901 135.988 462.899H31.9933C26.3946 462.898 21.0253 460.675 17.0663 456.717C13.1074 452.759 10.8831 447.391 10.8826 441.793V174.263C10.8831 168.666 13.1074 163.298 17.0663 159.34C21.0253 155.382 26.3946 153.158 31.9933 153.158H44.6136C43.9932 154.681 43.7567 156.333 43.9251 157.969C44.0934 159.605 44.6613 161.175 45.5788 162.54C46.4964 163.905 47.7355 165.024 49.187 165.797C50.6385 166.571 52.2581 166.977 53.9031 166.978H113.192C114.836 166.973 116.453 166.566 117.903 165.791C119.352 165.016 120.589 163.897 121.505 162.533C122.421 161.168 122.988 159.6 123.157 157.966C123.326 156.331 123.09 154.68 122.472 153.158H135.988C141.587 153.158 146.956 155.382 150.915 159.34C154.874 163.298 157.098 168.666 157.099 174.263Z" fill="white"/>
<path d="M136.479 454.641C136.479 457.413 136.392 460.162 136.219 462.889C136.142 462.897 136.065 462.9 135.988 462.899H31.9933C26.3946 462.898 21.0253 460.675 17.0663 456.717C13.1074 452.759 10.8831 447.391 10.8826 441.793V322.57C44.7657 324.278 76.6966 338.939 100.073 363.52C123.449 388.101 136.483 420.724 136.479 454.641Z" fill="#F2F2F2"/>
<path d="M3.65319 250.226C3.01515 250.225 2.40345 249.971 1.95229 249.52C1.50113 249.069 1.24733 248.457 1.24658 247.82V231.459C1.24658 230.821 1.50014 230.209 1.95147 229.757C2.40279 229.306 3.01492 229.053 3.65319 229.053C4.29146 229.053 4.90359 229.306 5.35492 229.757C5.80624 230.209 6.0598 230.821 6.0598 231.459V247.82C6.05905 248.457 5.80526 249.069 5.35409 249.52C4.90293 249.971 4.29123 250.225 3.65319 250.226Z" fill="#E6E6E6"/>
<path d="M96.7594 237.162H71.2216C68.9147 237.162 67.0447 239.032 67.0447 241.338V247.846C67.0447 250.153 68.9147 252.022 71.2216 252.022H96.7594C99.0662 252.022 100.936 250.153 100.936 247.846V241.338C100.936 239.032 99.0662 237.162 96.7594 237.162Z" fill="#F0BC7F"/>
<path d="M132.061 266.882H35.9203C33.6135 266.882 31.7434 268.752 31.7434 271.058V277.567C31.7434 279.873 33.6135 281.742 35.9203 281.742H132.061C134.368 281.742 136.238 279.873 136.238 277.567V271.058C136.238 268.752 134.368 266.882 132.061 266.882Z" fill="#E6E6E6"/>
<path d="M132.061 296.603H35.9203C33.6135 296.603 31.7434 298.472 31.7434 300.778V307.287C31.7434 309.593 33.6135 311.463 35.9203 311.463H132.061C134.368 311.463 136.238 309.593 136.238 307.287V300.778C136.238 298.472 134.368 296.603 132.061 296.603Z" fill="#E6E6E6"/>
<path d="M108.928 447.674C108.488 447.694 108.053 447.579 107.681 447.344C107.308 447.108 107.018 446.764 106.848 446.358C106.678 445.951 106.637 445.503 106.731 445.073C106.824 444.642 107.048 444.251 107.372 443.952L107.519 443.367C107.499 443.321 107.48 443.274 107.46 443.227C107.017 442.18 106.274 441.288 105.325 440.662C104.377 440.036 103.264 439.704 102.127 439.709C100.99 439.713 99.8801 440.053 98.936 440.686C97.9918 441.319 97.2558 442.217 96.8204 443.266C95.0802 447.457 92.8647 451.654 92.3192 456.084C92.0789 458.043 92.1802 460.028 92.6187 461.952C88.5315 453.038 86.4091 443.35 86.3954 433.544C86.3946 431.084 86.5313 428.625 86.805 426.18C87.0312 424.175 87.3451 422.185 87.7465 420.209C89.9372 409.486 94.6406 399.437 101.471 390.885C104.776 389.081 107.45 386.309 109.13 382.939C109.739 381.728 110.17 380.436 110.408 379.101C110.035 379.15 109.656 379.181 109.283 379.205C109.167 379.211 109.045 379.217 108.929 379.224L108.885 379.225C108.475 379.244 108.069 379.143 107.715 378.936C107.361 378.729 107.074 378.424 106.889 378.058C106.705 377.692 106.63 377.28 106.674 376.872C106.718 376.464 106.879 376.078 107.137 375.759C107.298 375.561 107.459 375.363 107.62 375.165C107.865 374.86 108.116 374.56 108.36 374.255C108.388 374.226 108.415 374.195 108.44 374.163C108.721 373.815 109.002 373.472 109.283 373.124C108.77 372.327 108.08 371.66 107.266 371.174C104.448 369.524 100.56 370.667 98.524 373.216C96.4822 375.764 96.0971 379.34 96.8062 382.524C97.5036 385.233 98.6571 387.804 100.217 390.127C100.065 390.322 99.9056 390.512 99.7528 390.707C96.959 394.299 94.524 398.156 92.4828 402.222C92.9792 397.666 92.3867 393.058 90.7541 388.776C89.0995 384.786 85.9981 381.425 83.267 377.975C82.5447 377.048 81.5637 376.356 80.4482 375.987C79.3326 375.617 78.1325 375.587 76.9996 375.899C75.8667 376.211 74.8518 376.852 74.0832 377.741C73.3146 378.63 72.8269 379.726 72.6816 380.892C72.676 380.943 72.6705 380.994 72.6652 381.045C73.0709 381.274 73.468 381.516 73.8565 381.773C74.3446 382.099 74.7228 382.565 74.9415 383.11C75.1603 383.654 75.2094 384.252 75.0824 384.825C74.9554 385.398 74.6583 385.92 74.23 386.321C73.8016 386.722 73.262 386.985 72.6818 387.074L72.6224 387.083C72.7669 388.545 73.0224 389.993 73.3866 391.416C74.4418 395.389 76.3065 399.101 78.8638 402.319C81.4211 405.537 84.6159 408.192 88.2477 410.118C88.4861 410.24 88.7185 410.363 88.9569 410.479C86.9061 416.289 85.6197 422.342 85.13 428.484C84.8528 432.108 84.8692 435.748 85.179 439.369L85.1606 439.24C84.378 435.214 82.2296 431.581 79.0779 428.954C74.397 425.11 67.7837 423.695 62.7338 420.605C62.1971 420.26 61.5731 420.076 60.9353 420.075C60.2976 420.073 59.6726 420.254 59.1343 420.596C58.5959 420.938 58.1666 421.426 57.8969 422.004C57.6272 422.582 57.5285 423.225 57.6122 423.857L57.6329 423.992C58.3857 424.298 59.1186 424.651 59.8275 425.049C60.2331 425.278 60.6302 425.521 61.0188 425.778C61.5069 426.104 61.8851 426.569 62.1038 427.114C62.3226 427.659 62.3717 428.257 62.2447 428.83C62.1177 429.403 61.8206 429.924 61.3922 430.325C60.9639 430.726 60.4243 430.989 59.8441 431.078L59.7847 431.087C59.7419 431.094 59.7052 431.1 59.6624 431.106C60.9486 434.176 62.7539 437.002 64.9992 439.461C67.7728 442.436 71.1252 444.814 74.8506 446.448C78.5761 448.082 82.5962 448.938 86.6644 448.964H86.6705C87.7748 453.762 89.3749 458.432 91.4449 462.899H108.501C108.562 462.709 108.617 462.514 108.672 462.324C107.093 462.424 105.508 462.329 103.952 462.043C105.218 460.491 106.483 458.926 107.749 457.374C107.777 457.345 107.804 457.314 107.828 457.282C108.47 456.488 109.118 455.699 109.76 454.905L109.76 454.904C109.795 452.468 109.515 450.039 108.929 447.675L108.928 447.674ZM89.397 409.263L89.406 409.25L89.397 409.275V409.263ZM85.6191 443.311L85.4723 442.981C85.4785 442.742 85.4785 442.504 85.4723 442.26C85.4723 442.192 85.4602 442.125 85.4602 442.058C85.5151 442.48 85.564 442.901 85.6252 443.323L85.6191 443.311Z" fill="#CCCCCC"/>
<path d="M3.17175 218.466C2.5337 218.465 1.92201 218.212 1.47084 217.761C1.01968 217.31 0.765888 216.698 0.765137 216.06V199.699C0.765137 199.061 1.01869 198.449 1.47002 197.998C1.92135 197.547 2.53347 197.293 3.17175 197.293C3.81002 197.293 4.42214 197.547 4.87347 197.998C5.3248 198.449 5.57836 199.061 5.57836 199.699V216.06C5.57761 216.698 5.32381 217.31 4.87265 217.761C4.42148 218.212 3.80979 218.465 3.17175 218.466Z" fill="#E6E6E6"/>
<path d="M67.1875 155.91C67.1883 155.272 67.442 154.66 67.8932 154.209C68.3444 153.758 68.9561 153.504 69.5941 153.504H85.9591C86.5973 153.504 87.2094 153.757 87.6608 154.208C88.1121 154.66 88.3657 155.272 88.3657 155.91C88.3657 156.548 88.1121 157.16 87.6608 157.611C87.2094 158.062 86.5973 158.316 85.9591 158.316H69.5941C68.9561 158.315 68.3444 158.061 67.8932 157.61C67.442 157.159 67.1883 156.548 67.1875 155.91Z" fill="white"/>
<path d="M3.65319 278.135C3.01515 278.135 2.40345 277.881 1.95229 277.43C1.50113 276.979 1.24733 276.367 1.24658 275.729V259.369C1.24658 258.73 1.50014 258.118 1.95147 257.667C2.40279 257.216 3.01492 256.963 3.65319 256.963C4.29146 256.963 4.90359 257.216 5.35492 257.667C5.80624 258.118 6.0598 258.73 6.0598 259.369V275.729C6.05905 276.367 5.80526 276.979 5.35409 277.43C4.90293 277.881 4.29123 278.135 3.65319 278.135Z" fill="#E6E6E6"/>
<path d="M95.1044 158.316C96.4335 158.316 97.511 157.238 97.511 155.91C97.511 154.581 96.4335 153.504 95.1044 153.504C93.7752 153.504 92.6978 154.581 92.6978 155.91C92.6978 157.238 93.7752 158.316 95.1044 158.316Z" fill="white"/>
<path d="M735.987 470.657L6.01038 471C5.74215 470.999 5.48516 470.859 5.29576 470.61C5.10636 470.361 5 470.023 5 469.671C5 469.32 5.10636 468.982 5.29576 468.733C5.48516 468.484 5.74215 468.344 6.01038 468.343L735.987 468C736.255 468 736.513 468.14 736.703 468.389C736.893 468.638 737 468.976 737 469.329C737 469.681 736.893 470.019 736.703 470.268C736.513 470.517 736.255 470.657 735.987 470.657Z" fill="#CACACA"/>
<path d="M262.072 217.606L257.729 218.537C257.7 216.721 257.474 214.913 257.054 213.146C256.659 215.31 255.827 217.371 254.608 219.203L229.698 224.521L205.783 199.289C205.747 186.673 212.754 177.086 225.319 177.086C226.076 177.086 226.861 177.122 227.655 177.195C234.443 176.059 241.407 177.601 247.081 181.496C252.756 185.39 256.697 191.334 258.076 198.076C266.981 206.842 263.751 211.996 262.072 217.606Z" fill="#707072"/>
<path d="M274.319 512.685H283.354L287.653 477.841L274.317 477.842L274.319 512.685Z" fill="#FFB6B6"/>
<path d="M272.078 508.229L286.361 507.377V513.495L299.941 522.871C300.611 523.334 301.117 523.999 301.382 524.77C301.648 525.54 301.661 526.375 301.418 527.153C301.175 527.931 300.691 528.611 300.034 529.094C299.377 529.577 298.584 529.837 297.768 529.837H280.764L277.833 523.786L276.688 529.837H270.277L272.078 508.229Z" fill="#707072"/>
<path d="M168.462 502.852L176.321 507.31L197.259 479.126L185.66 472.547L168.462 502.852Z" fill="#FFB6B6"/>
<path d="M168.713 497.871L181.557 504.177L178.537 509.498L185.719 524.353C186.074 525.086 186.185 525.914 186.036 526.715C185.887 527.517 185.486 528.249 184.891 528.806C184.296 529.363 183.538 529.715 182.729 529.811C181.919 529.907 181.1 529.742 180.391 529.34L165.601 520.95L166.039 514.241L162.057 518.94L156.48 515.776L168.713 497.871Z" fill="#707072"/>
<path d="M307.717 223.711C306.559 223.878 305.452 224.297 304.474 224.939C303.496 225.58 302.67 226.428 302.055 227.423C301.44 228.418 301.051 229.536 300.915 230.698C300.779 231.859 300.899 233.037 301.267 234.147L287.441 246.111L292.664 256.285L311.953 239.114C313.777 238.372 315.266 236.987 316.137 235.221C317.008 233.455 317.201 231.431 316.678 229.532C316.156 227.633 314.956 225.992 313.304 224.919C311.653 223.846 309.665 223.416 307.717 223.711H307.717Z" fill="#FFB6B6"/>
<path d="M293.794 264.854C289.182 271.837 278.845 278.582 263.504 284.561C262.658 284.9 261.75 285.06 260.839 285.03C259.928 285 259.033 284.782 258.211 284.388C252.422 281.754 248.711 271.962 248.363 271.012L237.15 255.89C236.951 255.67 231.708 249.72 232.308 243.872C232.443 242.646 232.841 241.464 233.477 240.407C234.112 239.35 234.968 238.443 235.987 237.749C244.475 231.458 263.498 253.306 265.967 256.211L278.382 248.648L287.428 244.613L294.731 235.73L305.013 246.24L295.766 260.948C295.272 262.326 294.61 263.638 293.794 264.854Z" fill="#707072"/>
<path d="M261.547 291.647C261.547 291.647 288.114 333.956 283.301 338.768C278.488 343.58 270.998 344.843 270.998 344.843L254.422 323.369L261.547 291.647Z" fill="#5E5D6B"/>
<path d="M238.057 233.865L250.578 242.333C256.398 246.269 260.775 251.996 263.046 258.643C265.317 265.291 265.358 272.498 263.162 279.171L259.637 289.883L238.057 233.865Z" fill="#5E5D6B"/>
<path d="M215.916 349.354L214.242 355.183L208.53 425.479L179.991 478.652L193.611 488.378L232.528 437.798L247.921 387.577L272.094 498.753L290.255 497.456L277.642 343.312L253.707 299.924L215.916 349.354Z" fill="#707072"/>
<path d="M235.927 235.995L253.355 250.233C257.179 253.358 259.934 257.599 261.233 262.363C261.823 264.526 262.104 266.763 262.066 269.005L261.547 299.924L277.525 342.617C277.525 342.617 234.206 358.978 228.43 344.542C222.655 330.106 235.927 235.995 235.927 235.995Z" fill="#F0BC7F"/>
<path d="M241.14 352.036C219.499 352.036 214.226 352.198 213.884 352.129L213.542 352.06V339.047L218.804 315.67C218.189 308.412 216.748 298.842 216.879 290.647C217.35 261.029 215.894 232.097 215.894 232.097L227.348 221.527L232.551 224.912L242.203 234.561C253.422 262.165 262.324 288.152 262.38 289.821L263.086 318.557L260.198 330.106C247.133 339.326 259.07 352.036 241.14 352.036Z" fill="#707072"/>
<path opacity="0.2" d="M220.748 257.899L218.117 274.316L235.927 281.66L220.748 257.899Z" fill="black"/>
<path d="M238.69 218.448C248.32 218.448 256.127 210.643 256.127 201.015C256.127 191.387 248.32 183.582 238.69 183.582C229.06 183.582 221.253 191.387 221.253 201.015C221.253 210.643 229.06 218.448 238.69 218.448Z" fill="#FFB6B6"/>
<path opacity="0.2" d="M209.472 289.466C214.113 294.839 220.408 298.517 227.367 299.923C234.327 301.33 241.556 300.384 247.92 297.236L251.715 295.358L209.472 289.466Z" fill="black"/>
<path d="M270.149 285.453C269.371 284.58 268.411 283.887 267.337 283.425C266.262 282.962 265.099 282.741 263.93 282.776C262.761 282.811 261.613 283.102 260.569 283.629C259.524 284.156 258.608 284.905 257.884 285.824L240.278 280.882L234.665 290.846L259.626 297.475C261.251 298.588 263.228 299.067 265.182 298.82C267.136 298.574 268.931 297.619 270.229 296.137C271.526 294.655 272.234 292.749 272.219 290.78C272.205 288.811 271.468 286.916 270.149 285.453H270.149Z" fill="#FFB6B6"/>
<path d="M228.136 296.511C219.765 296.512 208.439 291.605 194.995 282.102C194.245 281.583 193.612 280.914 193.135 280.138C192.657 279.361 192.347 278.494 192.222 277.591C191.23 271.31 197.359 262.818 197.96 262.004L204.402 244.316C204.476 244.029 206.553 236.376 211.765 233.653C212.862 233.091 214.068 232.772 215.301 232.72C216.533 232.667 217.762 232.882 218.903 233.349C228.831 236.964 221.079 264.873 220.015 268.534L233.168 274.723L241.521 280.047L252.961 281.243L249.855 295.613L232.482 296.004C231.06 296.352 229.6 296.522 228.136 296.511Z" fill="#707072"/>
<path d="M259.599 189.546C258.203 191.362 253.395 192.967 247.683 194.263C247.692 194.144 247.692 194.026 247.692 193.907C247.663 192.091 247.437 190.283 247.017 188.516C246.622 190.68 245.79 192.741 244.571 194.573C244.48 194.71 244.389 194.846 244.288 194.983C239.389 195.95 234.206 196.698 230.146 197.2C232.938 207.253 243.641 215.499 242.482 221.611L211.121 228.015C211.314 225.475 211.111 222.921 210.519 220.443C209.919 223.713 208.333 226.721 205.975 229.064L203.311 229.611L202.517 225.698C195.637 209.177 205.227 192.265 220.939 183.517C223.74 179.318 228.09 176.399 233.038 175.398L236.952 174.595C239.421 174.09 241.966 174.076 244.44 174.554C246.914 175.032 249.27 175.993 251.373 177.381C253.476 178.77 255.285 180.559 256.697 182.646C258.108 184.733 259.094 187.078 259.599 189.546Z" fill="#707072"/>
<path d="M334.514 505.588L334.978 495.163C339.813 492.58 345.205 491.215 350.686 491.188C343.142 497.354 344.085 509.241 338.97 517.534C337.355 520.108 335.181 522.286 332.61 523.906C330.038 525.526 327.135 526.546 324.116 526.892L317.802 530.757C316.936 525.928 317.127 520.97 318.362 516.223C319.597 511.475 321.847 507.052 324.957 503.258C326.722 501.146 328.747 499.266 330.982 497.66C332.495 501.646 334.514 505.588 334.514 505.588Z" fill="#F2F2F2"/>
<path d="M349.82 531H129.97C129.666 530.999 129.376 530.878 129.161 530.663C128.947 530.448 128.827 530.158 128.827 529.854C128.827 529.551 128.947 529.26 129.161 529.045C129.376 528.83 129.666 528.709 129.97 528.708H349.82C349.971 528.708 350.12 528.737 350.26 528.794C350.399 528.852 350.526 528.936 350.633 529.043C350.74 529.149 350.824 529.276 350.882 529.415C350.94 529.554 350.97 529.703 350.97 529.854C350.97 530.005 350.94 530.154 350.882 530.293C350.824 530.433 350.74 530.559 350.633 530.666C350.526 530.772 350.399 530.856 350.26 530.914C350.12 530.971 349.971 531.001 349.82 531Z" fill="#CACACA"/>
</g>
</svg>
