<svg width="85" height="67" viewBox="0 0 85 67" fill="none" xmlns="http://www.w3.org/2000/svg">
<rect width="85" height="67" rx="26" fill="white"/>
<path d="M28.1351 62C25.076 62 22.1114 61.4143 19.2412 60.2431C16.4088 59.0718 14.1617 57.5185 12.5 55.5833L15.0492 47.8681C16.6731 49.5995 18.6558 51.0255 20.9973 52.1458C23.3766 53.2153 25.7558 53.75 28.1351 53.75C31.0808 53.75 33.2712 53.1134 34.7063 51.8403C36.1792 50.5671 36.9156 48.8866 36.9156 46.7986C36.9156 45.2708 36.5002 44.0231 35.6694 43.0556C34.8763 42.037 33.8566 41.2477 32.6103 40.6875C31.364 40.1273 29.6646 39.4907 27.5119 38.7778C24.4907 37.8102 22.0359 36.8426 20.1476 35.875C18.2971 34.9074 16.692 33.4051 15.3324 31.3681C14.0106 29.2801 13.3497 26.4792 13.3497 22.9653C13.3497 20.0116 13.9351 17.338 15.1058 14.9444C16.3144 12.5 18.1082 10.5648 20.4875 9.13889C22.9045 7.71296 25.8502 7 29.3247 7C31.7417 7 34.121 7.40741 36.4624 8.22222C38.8039 9.03704 40.8244 10.2083 42.5238 11.7361L40.2013 19.4514C38.464 18.0764 36.6513 17.0324 34.763 16.3194C32.8747 15.6065 31.043 15.25 29.268 15.25C26.3601 15.25 24.1885 15.912 22.7534 17.2361C21.3561 18.5602 20.6574 20.3171 20.6574 22.5069C20.6574 24.0347 21.054 25.2824 21.847 26.25C22.6779 27.2176 23.7165 27.9815 24.9627 28.5417C26.209 29.1018 27.9085 29.7384 30.0611 30.4514C33.0069 31.3681 35.4239 32.3357 37.3122 33.3542C39.2005 34.3218 40.8055 35.8241 42.1273 37.8611C43.4869 39.8981 44.1667 42.6482 44.1667 46.1111C44.1667 49.0648 43.5624 51.7384 42.3539 54.1319C41.1832 56.5255 39.3893 58.4352 36.9723 59.8611C34.5553 61.287 31.6095 62 28.1351 62Z" fill="#46403A"/>
<path d="M53.9683 61C50.9093 61 47.9447 60.4143 45.0745 59.2431C42.242 58.0718 39.9949 56.5185 38.3333 54.5833L40.8824 46.8681C42.5064 48.5995 44.4891 50.0255 46.8306 51.1458C49.2098 52.2153 51.5891 52.75 53.9683 52.75C56.9141 52.75 59.1045 52.1134 60.5396 50.8403C62.0124 49.5671 62.7489 47.8866 62.7489 45.7986C62.7489 44.2708 62.3335 43.0231 61.5026 42.0556C60.7095 41.037 59.6898 40.2477 58.4436 39.6875C57.1973 39.1273 55.4978 38.4907 53.3452 37.7778C50.3239 36.8102 47.8691 35.8426 45.9808 34.875C44.1303 33.9074 42.5253 32.4051 41.1657 30.3681C39.8439 28.2801 39.183 25.4792 39.183 21.9653C39.183 19.0116 39.7684 16.338 40.9391 13.9444C42.1476 11.5 43.9415 9.56481 46.3207 8.13889C48.7377 6.71296 51.6835 6 55.1579 6C57.575 6 59.9542 6.40741 62.2957 7.22222C64.6372 8.03704 66.6576 9.20834 68.3571 10.7361L66.0345 18.4514C64.2973 17.0764 62.4845 16.0324 60.5962 15.3194C58.7079 14.6065 56.8763 14.25 55.1013 14.25C52.1933 14.25 50.0218 14.912 48.5867 16.2361C47.1893 17.5602 46.4907 19.3171 46.4907 21.5069C46.4907 23.0347 46.8872 24.2824 47.6803 25.25C48.5111 26.2176 49.5497 26.9815 50.796 27.5417C52.0423 28.1018 53.7417 28.7384 55.8944 29.4514C58.8401 30.3681 61.2571 31.3357 63.1454 32.3542C65.0337 33.3218 66.6388 34.8241 67.9606 36.8611C69.3201 38.8981 69.9999 41.6482 69.9999 45.1111C69.9999 48.0648 69.3957 50.7384 68.1872 53.1319C67.0164 55.5255 65.2225 57.4352 62.8055 58.8611C60.3885 60.287 57.4428 61 53.9683 61Z" fill="#675C52"/>
<path d="M28.1351 62C25.076 62 22.1114 61.4143 19.2412 60.2431C16.4088 59.0718 14.1617 57.5185 12.5 55.5833L15.0492 47.8681C16.6731 49.5995 18.6558 51.0255 20.9973 52.1458C23.3766 53.2153 25.7558 53.75 28.1351 53.75C31.0808 53.75 33.2712 53.1134 34.7063 51.8403C36.1792 50.5671 36.9156 48.8866 36.9156 46.7986C36.9156 45.2708 36.5002 44.0231 35.6694 43.0556C34.8763 42.037 33.8566 41.2477 32.6103 40.6875C31.364 40.1273 29.6646 39.4907 27.5119 38.7778C24.4907 37.8102 22.0359 36.8426 20.1476 35.875C18.2971 34.9074 16.692 33.4051 15.3324 31.3681C14.0106 29.2801 13.3497 26.4792 13.3497 22.9653C13.3497 20.0116 13.9351 17.338 15.1058 14.9444C16.3144 12.5 18.1082 10.5648 20.4875 9.13889C22.9045 7.71296 25.8502 7 29.3247 7C31.7417 7 34.121 7.40741 36.4624 8.22222C38.8039 9.03704 37.0505 11.9722 38.75 13.5L37.5 14.5C35.7628 13.125 36.6513 17.0324 34.763 16.3194C32.8747 15.6065 31.043 15.25 29.268 15.25C26.3601 15.25 24.1885 15.912 22.7534 17.2361C21.3561 18.5602 20.6574 20.3171 20.6574 22.5069C20.6574 24.0347 21.054 25.2824 21.847 26.25C22.6779 27.2176 23.7165 27.9815 24.9627 28.5417C26.209 29.1018 27.9085 29.7384 30.0611 30.4514C33.0069 31.3681 35.4239 32.3357 37.3122 33.3542C39.2005 34.3218 40.8055 35.8241 42.1273 37.8611C43.4869 39.8981 44.1667 42.6482 44.1667 46.1111C44.1667 49.0648 43.5624 51.7384 42.3539 54.1319C41.1832 56.5255 39.3893 58.4352 36.9723 59.8611C34.5553 61.287 31.6095 62 28.1351 62Z" fill="#46403A"/>
</svg>
